<svg width="24" height="24" viewBox="0 0 24 24" fill="none" xmlns="http://www.w3.org/2000/svg">
<path d="M13 16.841L16.7215 13.1206L15.925 12.3241L13.5625 14.6866V9.39912H12.4375V14.6866L10.075 12.3241L9.2785 13.1206L13 16.841ZM5.125 6.284V18.1831C5.125 18.3849 5.18987 18.5506 5.31962 18.6804C5.44937 18.8101 5.6155 18.875 5.818 18.875H20.1831C20.3849 18.875 20.5506 18.8101 20.6804 18.6804C20.8101 18.5506 20.875 18.3849 20.875 18.1831V6.284H5.125ZM5.99125 20C5.48725 20 5.02937 19.7941 4.61762 19.3824C4.20587 18.9706 4 18.5131 4 18.0099V5.92175C4 5.70275 4.03487 5.4965 4.10462 5.303C4.17437 5.1095 4.27938 4.93138 4.41963 4.76863L6.17238 2.66488C6.33513 2.44513 6.53875 2.27938 6.78325 2.16763C7.02775 2.05588 7.28987 2 7.56962 2H18.3876C18.6666 2 18.9321 2.05588 19.1841 2.16763C19.4361 2.27938 19.6435 2.44475 19.8062 2.66375L21.5804 4.8125C21.7206 4.97525 21.8256 5.15713 21.8954 5.35813C21.9651 5.55838 22 5.76838 22 5.98813V18.0087C22 18.512 21.7941 18.9695 21.3824 19.3813C20.9706 19.793 20.5131 19.9989 20.0099 19.9989L5.99125 20ZM5.5525 5.159H20.425L18.9288 3.36125C18.856 3.28925 18.7728 3.23188 18.679 3.18913C18.5852 3.14638 18.4878 3.125 18.3865 3.125H7.591C7.4905 3.125 7.393 3.14675 7.2985 3.19025C7.204 3.23375 7.1215 3.2915 7.051 3.3635L5.5525 5.159Z" fill="#4A4A4A" stroke="#4A4A4A" stroke-width="0.5"/>
</svg>
