<svg width="22" height="22" viewBox="0 0 22 22" fill="none" xmlns="http://www.w3.org/2000/svg">
<path d="M8 13.5H12M8 8.5H16M4 5H1.5M4 11H1.5M4 17H1.5M3 9C3 5.229 3 3.343 4.172 2.172C5.344 1.001 7.229 1 11 1H12.5C16.271 1 18.157 1 19.328 2.172C20.499 3.344 20.5 5.229 20.5 9V13C20.5 16.771 20.5 18.657 19.328 19.828C18.156 20.999 16.271 21 12.5 21H11C7.229 21 5.343 21 4.172 19.828C3.001 18.656 3 16.771 3 13V9Z" stroke="white" stroke-width="2" stroke-linecap="round" stroke-linejoin="round"/>
</svg>
