<svg width="24" height="24" viewBox="0 0 24 24" fill="none" xmlns="http://www.w3.org/2000/svg">
<path d="M5.57143 4.28571C5.57143 4.62671 5.43597 4.95373 5.19485 5.19485C4.95373 5.43597 4.62671 5.57143 4.28571 5.57143C3.94472 5.57143 3.6177 5.43597 3.37658 5.19485C3.13546 4.95373 3 4.62671 3 4.28571C3 3.94472 3.13546 3.6177 3.37658 3.37658C3.6177 3.13546 3.94472 3 4.28571 3C4.62671 3 4.95373 3.13546 5.19485 3.37658C5.43597 3.6177 5.57143 3.94472 5.57143 4.28571ZM5.57143 4.28571H8.14286C9.16583 4.28571 10.1469 4.69209 10.8703 5.41545C11.5936 6.1388 12 7.11988 12 8.14286V15.8571C12 16.8801 12.4064 17.8612 13.1297 18.5846C13.8531 19.3079 14.8342 19.7143 15.8571 19.7143H18.4286M18.4286 19.7143C18.4286 20.0553 18.564 20.3823 18.8051 20.6234C19.0463 20.8645 19.3733 21 19.7143 21C20.0553 21 20.3823 20.8645 20.6234 20.6234C20.8645 20.3823 21 20.0553 21 19.7143C21 19.3733 20.8645 19.0463 20.6234 18.8051C20.3823 18.564 20.0553 18.4286 19.7143 18.4286C19.3733 18.4286 19.0463 18.564 18.8051 18.8051C18.564 19.0463 18.4286 19.3733 18.4286 19.7143Z" stroke="#4A4A4A" stroke-width="1.5"/>
</svg>
